<svg height="16.104" viewBox="1.33 -0.252 75 16.104" width="75" xmlns="http://www.w3.org/2000/svg">
    <path
        d="M15.043 13.953c-1.266-1.265-1.899-2.817-1.899-4.653 0-1.836.633-3.387 1.9-4.653 1.265-1.265 2.81-1.899 4.634-1.899 1.824 0 3.372.634 4.644 1.899C25.594 5.913 26.23 7.464 26.23 9.3c0 1.836-.636 3.39-1.908 4.662-1.272 1.26-2.82 1.89-4.644 1.89-1.824 0-3.37-.633-4.635-1.899Zm54.5 1.647v-4.914L65.243 3h2.808l2.736 5.256L73.522 3h2.808l-4.32 7.686V15.6h-2.466Zm-11.74 0V3h2.483v10.224h4.806V15.6h-7.29Zm-5.587 0-4.5-5.904V15.6h-2.484V3h2.484v5.562L52.036 3h2.862l-4.662 6.12 4.842 6.48h-2.862Zm-50.886 0V3h4.968c1.08 0 1.99.333 2.727.999.738.666 1.107 1.516 1.107 2.547 0 1.044-.396 1.885-1.188 2.52 1.104.636 1.656 1.597 1.656 2.88 0 1.068-.378 1.944-1.134 2.628-.756.684-1.686 1.026-2.79 1.026H1.33ZM30.8 10.953c-1.266-1.266-1.9-2.817-1.9-4.653 0-1.836.634-3.386 1.9-4.653C32.065.381 33.61-.252 35.434-.252c1.824 0 3.372.633 4.644 1.9 1.272 1.266 1.908 2.816 1.908 4.652 0 1.836-.636 3.39-1.908 4.662-1.272 1.26-2.82 1.89-4.644 1.89-1.824 0-3.369-.632-4.635-1.899Z"
        data-name="BOOKLY" fill="#fff" fill-rule="evenodd" />
</svg>